<svg width="400" height="400" xmlns="http://www.w3.org/2000/svg">
  <!-- Snowflakes with varying sizes and opacities -->
  <!-- Top-left quadrant -->
  <circle cx="23" cy="18" r="1.5" fill="white" fill-opacity="0.12"/>
  <circle cx="87" cy="45" r="2" fill="white" fill-opacity="0.08"/>
  <circle cx="156" cy="12" r="1" fill="white" fill-opacity="0.15"/>
  <circle cx="42" cy="89" r="2.5" fill="white" fill-opacity="0.06"/>
  <circle cx="118" cy="67" r="1.5" fill="white" fill-opacity="0.1"/>
  <circle cx="178" cy="95" r="1" fill="white" fill-opacity="0.14"/>
  <circle cx="65" cy="142" r="2" fill="white" fill-opacity="0.07"/>
  <circle cx="134" cy="118" r="1.5" fill="white" fill-opacity="0.11"/>
  <circle cx="15" cy="165" r="1" fill="white" fill-opacity="0.13"/>
  <circle cx="95" cy="178" r="2.5" fill="white" fill-opacity="0.05"/>
  
  <!-- Top-right quadrant -->
  <circle cx="223" cy="32" r="1.5" fill="white" fill-opacity="0.09"/>
  <circle cx="287" cy="78" r="2" fill="white" fill-opacity="0.12"/>
  <circle cx="345" cy="15" r="1" fill="white" fill-opacity="0.08"/>
  <circle cx="256" cy="112" r="2.5" fill="white" fill-opacity="0.06"/>
  <circle cx="312" cy="56" r="1.5" fill="white" fill-opacity="0.14"/>
  <circle cx="378" cy="89" r="1" fill="white" fill-opacity="0.1"/>
  <circle cx="234" cy="156" r="2" fill="white" fill-opacity="0.07"/>
  <circle cx="298" cy="134" r="1.5" fill="white" fill-opacity="0.11"/>
  <circle cx="356" cy="167" r="1" fill="white" fill-opacity="0.09"/>
  <circle cx="389" cy="45" r="2.5" fill="white" fill-opacity="0.05"/>
  
  <!-- Bottom-left quadrant -->
  <circle cx="34" cy="234" r="1.5" fill="white" fill-opacity="0.11"/>
  <circle cx="98" cy="278" r="2" fill="white" fill-opacity="0.07"/>
  <circle cx="167" cy="223" r="1" fill="white" fill-opacity="0.13"/>
  <circle cx="56" cy="312" r="2.5" fill="white" fill-opacity="0.06"/>
  <circle cx="123" cy="256" r="1.5" fill="white" fill-opacity="0.1"/>
  <circle cx="178" cy="345" r="1" fill="white" fill-opacity="0.12"/>
  <circle cx="45" cy="378" r="2" fill="white" fill-opacity="0.08"/>
  <circle cx="145" cy="367" r="1.5" fill="white" fill-opacity="0.09"/>
  <circle cx="89" cy="389" r="1" fill="white" fill-opacity="0.14"/>
  <circle cx="12" cy="298" r="2.5" fill="white" fill-opacity="0.05"/>
  
  <!-- Bottom-right quadrant -->
  <circle cx="245" cy="245" r="1.5" fill="white" fill-opacity="0.08"/>
  <circle cx="312" cy="289" r="2" fill="white" fill-opacity="0.11"/>
  <circle cx="367" cy="234" r="1" fill="white" fill-opacity="0.07"/>
  <circle cx="278" cy="356" r="2.5" fill="white" fill-opacity="0.06"/>
  <circle cx="334" cy="312" r="1.5" fill="white" fill-opacity="0.13"/>
  <circle cx="389" cy="278" r="1" fill="white" fill-opacity="0.1"/>
  <circle cx="256" cy="389" r="2" fill="white" fill-opacity="0.09"/>
  <circle cx="345" cy="378" r="1.5" fill="white" fill-opacity="0.12"/>
  <circle cx="378" cy="345" r="1" fill="white" fill-opacity="0.08"/>
  <circle cx="298" cy="267" r="2.5" fill="white" fill-opacity="0.05"/>
  
  <!-- Center area - sparse -->
  <circle cx="198" cy="198" r="1.5" fill="white" fill-opacity="0.07"/>
  <circle cx="167" cy="234" r="1" fill="white" fill-opacity="0.1"/>
  <circle cx="234" cy="178" r="2" fill="white" fill-opacity="0.06"/>
  <circle cx="189" cy="156" r="1.5" fill="white" fill-opacity="0.09"/>
  <circle cx="212" cy="267" r="1" fill="white" fill-opacity="0.08"/>
</svg>
